<svg xmlns="http://www.w3.org/2000/svg" xmlns:xlink="http://www.w3.org/1999/xlink" width="50" zoomAndPan="magnify" viewBox="0 0 37.5 37.499999" height="50" preserveAspectRatio="xMidYMid meet" version="1.0"><defs><clipPath id="id1"><path d="M 2.707031 2.707031 L 35.707031 2.707031 L 35.707031 35.707031 L 2.707031 35.707031 Z M 2.707031 2.707031 " clip-rule="nonzero"/></clipPath><clipPath id="id2"><path d="M 2.140625 2.140625 L 35.140625 2.140625 L 35.140625 35.140625 L 2.140625 35.140625 Z M 2.140625 2.140625 " clip-rule="nonzero"/></clipPath><clipPath id="id3"><path d="M 10.289062 10.289062 L 27.539062 10.289062 L 27.539062 27.539062 L 10.289062 27.539062 Z M 10.289062 10.289062 " clip-rule="nonzero"/></clipPath></defs><g clip-path="url(#id1)"><path fill="#69ab3d" d="M 19.207031 2.707031 C 10.09375 2.707031 2.707031 10.09375 2.707031 19.207031 C 2.707031 28.316406 10.09375 35.707031 19.207031 35.707031 C 28.316406 35.707031 35.707031 28.316406 35.707031 19.207031 C 35.707031 10.09375 28.316406 2.707031 19.207031 2.707031 " fill-opacity="1" fill-rule="nonzero"/></g><g clip-path="url(#id2)"><path fill="#ffffff" d="M 18.640625 2.140625 C 9.527344 2.140625 2.140625 9.527344 2.140625 18.640625 C 2.140625 27.753906 9.527344 35.140625 18.640625 35.140625 C 27.753906 35.140625 35.140625 27.753906 35.140625 18.640625 C 35.140625 9.527344 27.753906 2.140625 18.640625 2.140625 " fill-opacity="1" fill-rule="nonzero"/></g><g clip-path="url(#id3)"><path fill="#69ab3d" d="M 15.519531 11.910156 C 15.105469 12.109375 14.710938 12.347656 14.339844 12.617188 C 13.964844 12.890625 13.621094 13.195312 13.300781 13.53125 C 12.984375 13.863281 12.699219 14.222656 12.445312 14.609375 C 12.191406 14.996094 11.976562 15.402344 11.792969 15.828125 C 11.613281 16.253906 11.472656 16.691406 11.371094 17.140625 C 11.269531 17.589844 11.210938 18.046875 11.191406 18.507812 C 11.171875 18.96875 11.195312 19.429688 11.257812 19.886719 C 11.324219 20.34375 11.425781 20.792969 11.570312 21.230469 C 11.203125 21.429688 10.847656 21.652344 10.503906 21.894531 C 10.386719 21.984375 10.332031 22.101562 10.332031 22.246094 L 10.332031 26.941406 C 10.332031 27.058594 10.375 27.160156 10.457031 27.246094 C 10.542969 27.328125 10.640625 27.371094 10.761719 27.371094 C 10.914062 27.371094 20.582031 27.558594 23.296875 26.484375 C 24.027344 26.144531 24.652344 25.667969 25.179688 25.054688 C 26.023438 24.140625 26.722656 23.125 27.28125 22.011719 C 27.5 21.582031 27.480469 21.164062 27.230469 20.753906 C 27.046875 20.453125 26.78125 20.257812 26.4375 20.175781 C 26.515625 19.730469 26.554688 19.28125 26.558594 18.828125 C 26.558594 18.105469 26.457031 17.398438 26.257812 16.703125 C 26.058594 16.007812 25.765625 15.355469 25.382812 14.742188 C 24.996094 14.132812 24.535156 13.585938 23.996094 13.101562 C 23.457031 12.621094 22.863281 12.222656 22.210938 11.910156 C 22.011719 11.65625 21.785156 11.429688 21.535156 11.230469 C 21.285156 11.027344 21.015625 10.855469 20.722656 10.71875 C 20.433594 10.578125 20.132812 10.472656 19.820312 10.398438 C 19.503906 10.328125 19.1875 10.292969 18.867188 10.292969 C 18.542969 10.292969 18.226562 10.328125 17.914062 10.398438 C 17.601562 10.472656 17.296875 10.578125 17.007812 10.71875 C 16.71875 10.855469 16.449219 11.027344 16.199219 11.230469 C 15.945312 11.429688 15.722656 11.65625 15.519531 11.910156 Z M 11.1875 26.515625 C 13.054688 26.546875 20.644531 26.605469 22.976562 25.660156 C 23.585938 25.367188 24.105469 24.960938 24.542969 24.445312 C 25.328125 23.59375 25.984375 22.648438 26.503906 21.609375 C 26.585938 21.46875 26.585938 21.324219 26.503906 21.183594 C 26.421875 21.039062 26.296875 20.964844 26.132812 20.964844 L 26.097656 20.964844 C 25.964844 20.964844 25.855469 21.015625 25.769531 21.117188 C 25.316406 21.632812 24.300781 22.53125 23.296875 23.429688 C 22.714844 24.019531 22.011719 24.335938 21.1875 24.378906 L 16.738281 24.378906 C 16.621094 24.378906 16.519531 24.339844 16.4375 24.253906 C 16.351562 24.171875 16.3125 24.070312 16.3125 23.953125 C 16.3125 23.835938 16.351562 23.734375 16.4375 23.652344 C 16.519531 23.570312 16.621094 23.527344 16.738281 23.527344 L 19.84375 23.527344 C 20.042969 23.527344 20.214844 23.460938 20.359375 23.320312 C 20.5 23.183594 20.574219 23.015625 20.582031 22.8125 C 20.582031 22.8125 20.582031 22.8125 20.582031 22.78125 C 20.582031 22.597656 20.523438 22.4375 20.402344 22.300781 C 20.285156 22.164062 20.136719 22.082031 19.957031 22.054688 C 19.175781 21.917969 18.386719 21.839844 17.589844 21.820312 C 16.375 21.820312 15.925781 21.390625 13.75 21.390625 C 12.808594 21.390625 11.613281 22.15625 11.1875 22.464844 Z M 22.5625 16.695312 C 22.417969 16.945312 22.25 17.175781 22.0625 17.390625 C 21.871094 17.609375 21.660156 17.800781 21.429688 17.976562 C 21.199219 18.148438 20.957031 18.296875 20.695312 18.421875 C 20.4375 18.542969 20.167969 18.640625 19.886719 18.710938 C 19.609375 18.777344 19.328125 18.820312 19.039062 18.832031 C 18.75 18.84375 18.464844 18.824219 18.183594 18.78125 C 17.898438 18.734375 17.621094 18.660156 17.351562 18.558594 C 17.082031 18.457031 16.828125 18.332031 16.585938 18.175781 C 16.375 18.320312 16.140625 18.398438 15.882812 18.402344 L 15.457031 18.402344 C 15.339844 18.402344 15.238281 18.445312 15.15625 18.527344 C 15.070312 18.613281 15.03125 18.710938 15.03125 18.828125 C 15.027344 18.949219 15.070312 19.050781 15.152344 19.132812 C 15.238281 19.214844 15.339844 19.257812 15.457031 19.257812 L 18.019531 19.257812 C 18.246094 19.257812 18.464844 19.300781 18.671875 19.386719 C 18.882812 19.472656 19.066406 19.597656 19.226562 19.757812 C 19.386719 19.917969 19.511719 20.101562 19.597656 20.3125 C 19.683594 20.519531 19.726562 20.738281 19.726562 20.964844 C 19.730469 21.03125 19.730469 21.097656 19.726562 21.164062 L 20.097656 21.222656 C 20.472656 21.28125 20.78125 21.449219 21.035156 21.730469 C 21.285156 22.011719 21.417969 22.34375 21.433594 22.71875 L 21.433594 22.78125 C 21.433594 23.042969 21.371094 23.292969 21.246094 23.527344 C 21.824219 23.464844 22.316406 23.222656 22.714844 22.800781 C 23.683594 21.945312 24.675781 21.058594 25.109375 20.5625 L 25.140625 20.53125 L 23.347656 20.53125 C 23.148438 20.53125 22.957031 20.492188 22.777344 20.414062 C 22.59375 20.339844 22.429688 20.230469 22.289062 20.089844 C 22.152344 19.953125 22.042969 19.789062 21.964844 19.605469 C 21.890625 19.421875 21.851562 19.234375 21.851562 19.035156 L 21.851562 18.929688 C 21.855469 18.746094 21.890625 18.570312 21.960938 18.398438 C 22.03125 18.230469 22.132812 18.082031 22.261719 17.953125 C 22.390625 17.820312 22.542969 17.722656 22.710938 17.652344 C 22.878906 17.582031 23.058594 17.546875 23.242188 17.550781 C 23.328125 17.546875 23.402344 17.515625 23.460938 17.457031 C 23.527344 17.394531 23.558594 17.316406 23.558594 17.230469 L 23.558594 17.121094 C 23.558594 17.003906 23.515625 16.902344 23.429688 16.820312 C 23.347656 16.738281 23.246094 16.695312 23.128906 16.695312 Z M 15.171875 16.695312 L 12.378906 16.695312 C 11.929688 18.082031 11.917969 19.46875 12.347656 20.863281 C 12.796875 20.667969 13.261719 20.558594 13.75 20.539062 C 15.925781 20.539062 16.375 20.964844 17.589844 20.964844 C 18.019531 20.96875 18.449219 21 18.871094 21.050781 C 18.875 21.023438 18.875 20.992188 18.871094 20.964844 C 18.871094 20.730469 18.789062 20.527344 18.621094 20.359375 C 18.457031 20.195312 18.253906 20.109375 18.019531 20.109375 L 15.457031 20.109375 C 15.101562 20.109375 14.800781 19.984375 14.550781 19.734375 C 14.300781 19.484375 14.175781 19.183594 14.175781 18.828125 C 14.175781 18.476562 14.300781 18.175781 14.550781 17.925781 C 14.800781 17.675781 15.101562 17.550781 15.457031 17.550781 L 15.824219 17.550781 C 15.570312 17.292969 15.355469 17.007812 15.175781 16.695312 Z M 22.964844 13.363281 C 23.203125 14.191406 23.195312 15.019531 22.9375 15.839844 L 23.140625 15.839844 C 23.3125 15.839844 23.476562 15.875 23.632812 15.9375 C 23.789062 16.003906 23.929688 16.097656 24.046875 16.214844 C 24.167969 16.335938 24.261719 16.476562 24.324219 16.632812 C 24.390625 16.789062 24.421875 16.953125 24.421875 17.121094 L 24.421875 17.230469 C 24.421875 17.550781 24.308594 17.828125 24.082031 18.058594 C 23.851562 18.285156 23.574219 18.398438 23.253906 18.398438 C 23.105469 18.398438 22.980469 18.449219 22.875 18.550781 C 22.769531 18.65625 22.714844 18.78125 22.714844 18.929688 L 22.714844 19.035156 C 22.714844 19.210938 22.777344 19.363281 22.902344 19.488281 C 23.027344 19.613281 23.179688 19.675781 23.355469 19.675781 L 25.648438 19.675781 C 25.683594 19.394531 25.703125 19.113281 25.703125 18.828125 C 25.703125 17.753906 25.460938 16.734375 24.980469 15.773438 C 24.496094 14.8125 23.824219 14.007812 22.964844 13.363281 Z M 18.871094 11.144531 C 19.324219 11.144531 19.761719 11.230469 20.179688 11.40625 C 20.597656 11.578125 20.96875 11.824219 21.289062 12.144531 C 21.609375 12.464844 21.855469 12.835938 22.027344 13.253906 C 22.203125 13.671875 22.289062 14.105469 22.289062 14.558594 C 22.289062 15.011719 22.203125 15.449219 22.027344 15.867188 C 21.855469 16.285156 21.609375 16.65625 21.289062 16.976562 C 20.96875 17.296875 20.597656 17.542969 20.179688 17.714844 C 19.761719 17.890625 19.324219 17.976562 18.871094 17.976562 C 18.417969 17.976562 17.984375 17.890625 17.566406 17.714844 C 17.148438 17.542969 16.777344 17.296875 16.457031 16.976562 C 16.136719 16.65625 15.890625 16.285156 15.71875 15.867188 C 15.542969 15.449219 15.457031 15.011719 15.457031 14.558594 C 15.457031 14.105469 15.542969 13.671875 15.71875 13.253906 C 15.890625 12.835938 16.136719 12.464844 16.457031 12.144531 C 16.777344 11.824219 17.148438 11.578125 17.566406 11.40625 C 17.984375 11.230469 18.417969 11.144531 18.871094 11.144531 Z M 18.871094 12.851562 C 18.730469 12.726562 18.570312 12.625 18.394531 12.554688 C 18.214844 12.484375 18.03125 12.449219 17.839844 12.445312 C 17.648438 12.441406 17.464844 12.472656 17.285156 12.535156 C 17.101562 12.597656 16.941406 12.691406 16.792969 12.8125 C 16.21875 13.277344 16.128906 14.300781 16.695312 15.304688 C 17.039062 15.957031 17.910156 16.621094 18.652344 17.058594 C 18.792969 17.140625 18.933594 17.140625 19.078125 17.058594 C 19.816406 16.632812 20.6875 15.957031 21.035156 15.304688 C 21.597656 14.300781 21.507812 13.296875 20.9375 12.792969 C 20.792969 12.671875 20.628906 12.582031 20.449219 12.523438 C 20.269531 12.460938 20.085938 12.433594 19.894531 12.441406 C 19.707031 12.445312 19.523438 12.484375 19.347656 12.554688 C 19.171875 12.625 19.011719 12.726562 18.871094 12.851562 Z M 18.492188 13.707031 C 18.574219 13.851562 18.699219 13.921875 18.863281 13.925781 C 19.03125 13.921875 19.152344 13.851562 19.234375 13.707031 C 19.285156 13.601562 19.351562 13.515625 19.441406 13.441406 C 19.527344 13.371094 19.628906 13.320312 19.738281 13.289062 C 19.851562 13.261719 19.960938 13.257812 20.074219 13.28125 C 20.1875 13.304688 20.289062 13.347656 20.378906 13.414062 C 20.53125 13.5625 20.597656 13.742188 20.582031 13.953125 C 20.566406 14.289062 20.472656 14.601562 20.296875 14.890625 C 19.925781 15.429688 19.453125 15.855469 18.878906 16.171875 C 18.304688 15.855469 17.832031 15.425781 17.460938 14.890625 C 17.28125 14.601562 17.183594 14.292969 17.164062 13.953125 C 17.148438 13.75 17.210938 13.574219 17.355469 13.429688 C 17.449219 13.363281 17.546875 13.316406 17.660156 13.292969 C 17.769531 13.273438 17.878906 13.273438 17.988281 13.300781 C 18.101562 13.328125 18.199219 13.375 18.285156 13.449219 C 18.375 13.519531 18.441406 13.605469 18.492188 13.707031 Z M 14.769531 13.363281 C 13.890625 14.027344 13.210938 14.851562 12.726562 15.839844 L 14.796875 15.839844 C 14.539062 15.019531 14.527344 14.195312 14.769531 13.367188 Z M 14.769531 13.363281 " fill-opacity="1" fill-rule="evenodd"/></g></svg>