<svg xmlns="http://www.w3.org/2000/svg" xmlns:xlink="http://www.w3.org/1999/xlink" width="50" zoomAndPan="magnify" viewBox="0 0 37.5 37.499999" height="50" preserveAspectRatio="xMidYMid meet" version="1.0"><defs><clipPath id="id1"><path d="M 2.707031 2.707031 L 35.707031 2.707031 L 35.707031 35.707031 L 2.707031 35.707031 Z M 2.707031 2.707031 " clip-rule="nonzero"/></clipPath><clipPath id="id2"><path d="M 2.140625 2.140625 L 35.140625 2.140625 L 35.140625 35.140625 L 2.140625 35.140625 Z M 2.140625 2.140625 " clip-rule="nonzero"/></clipPath><clipPath id="id3"><path d="M 10.316406 10.316406 L 26.816406 10.316406 L 26.816406 26.816406 L 10.316406 26.816406 Z M 10.316406 10.316406 " clip-rule="nonzero"/></clipPath></defs><g clip-path="url(#id1)"><path fill="#69ab3d" d="M 19.207031 2.707031 C 10.09375 2.707031 2.707031 10.09375 2.707031 19.207031 C 2.707031 28.316406 10.09375 35.707031 19.207031 35.707031 C 28.316406 35.707031 35.707031 28.316406 35.707031 19.207031 C 35.707031 10.09375 28.316406 2.707031 19.207031 2.707031 " fill-opacity="1" fill-rule="nonzero"/></g><g clip-path="url(#id2)"><path fill="#ffffff" d="M 18.640625 2.140625 C 9.527344 2.140625 2.140625 9.527344 2.140625 18.640625 C 2.140625 27.753906 9.527344 35.140625 18.640625 35.140625 C 27.753906 35.140625 35.140625 27.753906 35.140625 18.640625 C 35.140625 9.527344 27.753906 2.140625 18.640625 2.140625 " fill-opacity="1" fill-rule="nonzero"/></g><g clip-path="url(#id3)"><path fill="#69ab3d" d="M 22.9375 14.695312 L 22.683594 13.714844 C 22.597656 13.402344 22.574219 13.082031 22.617188 12.757812 C 22.660156 12.433594 22.761719 12.128906 22.925781 11.84375 C 23.089844 11.5625 23.300781 11.320312 23.558594 11.121094 C 23.816406 10.921875 24.105469 10.777344 24.417969 10.691406 L 25.613281 10.359375 C 25.722656 10.332031 25.824219 10.34375 25.921875 10.402344 C 26.023438 10.457031 26.085938 10.542969 26.113281 10.652344 L 26.433594 11.84375 C 26.523438 12.160156 26.546875 12.484375 26.503906 12.808594 C 26.460938 13.136719 26.359375 13.441406 26.195312 13.726562 C 26.03125 14.015625 25.820312 14.257812 25.558594 14.457031 C 25.296875 14.65625 25.007812 14.800781 24.691406 14.886719 L 23.652344 15.160156 L 23.535156 15.273438 C 23.460938 15.339844 23.382812 15.402344 23.304688 15.460938 C 23.707031 15.589844 24.074219 15.789062 24.402344 16.058594 C 24.726562 16.328125 24.992188 16.648438 25.195312 17.019531 C 25.402344 17.390625 25.527344 17.785156 25.578125 18.207031 C 25.628906 18.628906 25.597656 19.042969 25.488281 19.453125 C 25.429688 19.671875 25.390625 19.820312 25.382812 19.863281 C 25.332031 20.0625 25.203125 20.164062 25 20.171875 L 24.875 20.171875 L 23.703125 19.824219 C 23.382812 19.738281 23.09375 19.597656 22.828125 19.398438 C 22.566406 19.195312 22.351562 18.953125 22.1875 18.667969 C 22.023438 18.382812 21.917969 18.074219 21.878906 17.746094 C 21.835938 17.417969 21.859375 17.097656 21.945312 16.777344 L 22.128906 16.121094 C 21.394531 16.375 20.640625 16.511719 19.863281 16.53125 L 19.390625 16.53125 C 18.574219 16.496094 17.828125 16.710938 17.152344 17.175781 C 16.683594 17.539062 16.332031 17.996094 16.097656 18.542969 C 16.410156 18.382812 16.738281 18.273438 17.082031 18.21875 C 17.425781 18.164062 17.769531 18.160156 18.117188 18.214844 C 18.460938 18.269531 18.789062 18.375 19.101562 18.53125 C 19.410156 18.691406 19.691406 18.894531 19.9375 19.140625 L 20.226562 19.429688 C 20.585938 19.785156 20.226562 20.011719 20.226562 20.011719 L 19.367188 20.871094 C 19.132812 21.109375 18.867188 21.289062 18.5625 21.417969 C 18.253906 21.542969 17.9375 21.609375 17.605469 21.609375 C 17.277344 21.609375 16.957031 21.542969 16.652344 21.417969 C 16.347656 21.289062 16.078125 21.109375 15.847656 20.871094 L 15.601562 20.625 C 15.546875 21.328125 15.558594 22.027344 15.640625 22.726562 C 15.792969 22.710938 15.945312 22.703125 16.097656 22.703125 C 17.714844 22.703125 19.238281 23.457031 20.402344 24.257812 L 20.667969 24.167969 C 20.089844 23.675781 19.800781 23.050781 19.800781 22.292969 L 19.800781 21.878906 C 19.800781 21.765625 19.84375 21.667969 19.921875 21.589844 C 20.003906 21.507812 20.101562 21.46875 20.214844 21.46875 L 21.449219 21.46875 C 21.941406 21.46875 22.355469 21.652344 22.683594 22.023438 C 23.011719 21.652344 23.421875 21.46875 23.917969 21.46875 L 25.152344 21.46875 C 25.265625 21.46875 25.363281 21.507812 25.441406 21.589844 C 25.523438 21.667969 25.5625 21.765625 25.5625 21.878906 L 25.5625 22.292969 C 25.566406 22.703125 25.472656 23.089844 25.28125 23.453125 C 25.09375 23.820312 24.828125 24.117188 24.488281 24.347656 C 24.753906 24.457031 25.003906 24.59375 25.238281 24.761719 C 25.699219 25.074219 26.042969 25.488281 26.269531 25.996094 L 26.386719 25.996094 C 26.5 25.996094 26.597656 26.035156 26.675781 26.117188 C 26.757812 26.195312 26.796875 26.292969 26.796875 26.40625 C 26.796875 26.519531 26.757812 26.617188 26.675781 26.699219 C 26.597656 26.777344 26.5 26.816406 26.386719 26.816406 L 10.75 26.816406 C 10.636719 26.816406 10.539062 26.777344 10.457031 26.699219 C 10.378906 26.617188 10.339844 26.519531 10.339844 26.40625 C 10.339844 26.292969 10.378906 26.195312 10.457031 26.117188 C 10.539062 26.035156 10.636719 25.996094 10.75 25.996094 L 10.941406 25.996094 C 11.484375 25.214844 12.125 24.53125 12.863281 23.9375 C 13.453125 23.460938 14.105469 23.109375 14.828125 22.882812 C 14.726562 21.996094 14.726562 21.109375 14.828125 20.222656 L 14.042969 20.222656 C 13.714844 20.222656 13.398438 20.160156 13.097656 20.035156 C 12.792969 19.910156 12.527344 19.730469 12.296875 19.5 C 12.0625 19.265625 11.886719 19 11.761719 18.699219 C 11.636719 18.394531 11.574219 18.082031 11.574219 17.753906 L 11.574219 16.53125 C 11.574219 16.417969 11.613281 16.320312 11.695312 16.238281 C 11.773438 16.160156 11.871094 16.121094 11.984375 16.121094 L 12.394531 16.121094 C 13.304688 16.117188 14.082031 16.441406 14.726562 17.082031 C 15.011719 17.371094 15.238281 17.703125 15.402344 18.078125 C 15.695312 17.460938 16.117188 16.941406 16.664062 16.53125 C 16.855469 16.390625 17.054688 16.273438 17.269531 16.167969 C 17.109375 16.070312 16.960938 15.953125 16.828125 15.820312 C 16.339844 15.335938 16.097656 14.75 16.097656 14.0625 L 16.097656 12.828125 C 16.097656 12.714844 16.140625 12.617188 16.21875 12.535156 C 16.300781 12.457031 16.398438 12.417969 16.511719 12.417969 L 16.921875 12.417969 C 17.355469 12.417969 17.773438 12.5 18.175781 12.664062 C 18.574219 12.828125 18.929688 13.0625 19.238281 13.367188 C 19.546875 13.675781 19.785156 14.027344 19.953125 14.425781 C 20.121094 14.824219 20.210938 15.242188 20.214844 15.675781 C 21.226562 15.640625 22.132812 15.3125 22.9375 14.695312 Z M 21.285156 25.996094 C 20.285156 25.070312 18.292969 23.527344 16.097656 23.527344 C 15.066406 23.570312 14.160156 23.929688 13.371094 24.597656 C 12.855469 25.011719 12.394531 25.476562 11.984375 25.996094 Z M 25.328125 25.996094 C 24.972656 25.484375 24.144531 24.761719 22.269531 24.761719 C 21.917969 24.757812 21.566406 24.796875 21.222656 24.871094 C 21.65625 25.21875 22.066406 25.59375 22.457031 25.996094 Z M 24.738281 22.292969 C 24.738281 22.511719 24.699219 22.71875 24.613281 22.921875 C 24.53125 23.125 24.414062 23.300781 24.257812 23.457031 C 24.105469 23.609375 23.925781 23.730469 23.722656 23.8125 C 23.523438 23.894531 23.3125 23.9375 23.09375 23.9375 L 23.09375 23.113281 C 23.09375 22.886719 23.175781 22.695312 23.335938 22.53125 C 23.496094 22.371094 23.691406 22.292969 23.917969 22.292969 Z M 20.625 22.292969 C 20.625 22.511719 20.667969 22.71875 20.75 22.921875 C 20.835938 23.125 20.953125 23.300781 21.105469 23.457031 C 21.261719 23.609375 21.441406 23.730469 21.640625 23.8125 C 21.84375 23.894531 22.054688 23.9375 22.269531 23.9375 L 22.269531 23.113281 C 22.269531 22.886719 22.191406 22.695312 22.03125 22.53125 C 21.871094 22.371094 21.675781 22.292969 21.449219 22.292969 Z M 19.351562 19.722656 L 18.78125 20.292969 C 18.625 20.445312 18.445312 20.566406 18.242188 20.652344 C 18.039062 20.734375 17.824219 20.777344 17.605469 20.777344 C 17.382812 20.777344 17.171875 20.734375 16.96875 20.652344 C 16.765625 20.566406 16.585938 20.445312 16.429688 20.292969 L 15.855469 19.722656 C 16.085938 19.492188 16.355469 19.3125 16.65625 19.1875 C 16.960938 19.0625 17.273438 19 17.601562 19 C 17.929688 19 18.246094 19.0625 18.546875 19.1875 C 18.851562 19.3125 19.117188 19.492188 19.351562 19.722656 Z M 12.394531 16.941406 C 12.722656 16.941406 13.039062 17.003906 13.339844 17.128906 C 13.644531 17.253906 13.910156 17.433594 14.140625 17.664062 C 14.371094 17.898438 14.550781 18.164062 14.675781 18.464844 C 14.800781 18.769531 14.863281 19.085938 14.863281 19.410156 L 14.042969 19.410156 C 13.824219 19.410156 13.613281 19.371094 13.410156 19.285156 C 13.210938 19.203125 13.03125 19.082031 12.878906 18.929688 C 12.722656 18.773438 12.605469 18.597656 12.519531 18.394531 C 12.4375 18.195312 12.394531 17.984375 12.394531 17.765625 Z M 22.945312 16.210938 C 23.261719 16.292969 23.550781 16.4375 23.8125 16.636719 C 24.070312 16.835938 24.28125 17.074219 24.445312 17.359375 C 24.609375 17.644531 24.714844 17.949219 24.757812 18.273438 C 24.800781 18.597656 24.78125 18.917969 24.695312 19.234375 L 23.917969 19.027344 C 23.699219 18.972656 23.503906 18.878906 23.324219 18.742188 C 23.148438 18.609375 23.003906 18.445312 22.890625 18.25 C 22.78125 18.054688 22.710938 17.847656 22.683594 17.625 C 22.660156 17.402344 22.675781 17.1875 22.738281 16.972656 L 22.945312 16.195312 Z M 16.921875 13.238281 C 17.25 13.238281 17.5625 13.300781 17.867188 13.425781 C 18.167969 13.550781 18.4375 13.730469 18.667969 13.960938 C 18.898438 14.195312 19.078125 14.460938 19.203125 14.761719 C 19.328125 15.066406 19.390625 15.378906 19.390625 15.707031 L 18.566406 15.707031 C 18.347656 15.707031 18.140625 15.667969 17.9375 15.582031 C 17.738281 15.5 17.558594 15.378906 17.402344 15.226562 C 17.25 15.070312 17.128906 14.894531 17.046875 14.691406 C 16.964844 14.492188 16.921875 14.28125 16.921875 14.0625 Z M 12.394531 10.359375 C 12.121094 10.359375 11.859375 10.410156 11.609375 10.515625 C 11.355469 10.621094 11.132812 10.769531 10.941406 10.960938 C 10.75 11.15625 10.597656 11.378906 10.496094 11.628906 C 10.390625 11.882812 10.339844 12.144531 10.339844 12.417969 C 10.339844 12.6875 10.390625 12.953125 10.496094 13.203125 C 10.597656 13.457031 10.75 13.679688 10.941406 13.871094 C 11.132812 14.0625 11.355469 14.210938 11.609375 14.316406 C 11.859375 14.421875 12.121094 14.472656 12.394531 14.472656 C 12.667969 14.472656 12.929688 14.421875 13.183594 14.316406 C 13.433594 14.210938 13.65625 14.0625 13.851562 13.871094 C 14.042969 13.679688 14.191406 13.457031 14.296875 13.203125 C 14.402344 12.953125 14.453125 12.6875 14.453125 12.417969 C 14.453125 12.144531 14.402344 11.882812 14.296875 11.628906 C 14.191406 11.378906 14.042969 11.15625 13.851562 10.960938 C 13.65625 10.769531 13.433594 10.621094 13.183594 10.515625 C 12.929688 10.410156 12.667969 10.359375 12.394531 10.359375 Z M 24.414062 14.101562 L 24.476562 14.101562 C 24.6875 14.046875 24.878906 13.953125 25.054688 13.820312 C 25.226562 13.6875 25.367188 13.527344 25.476562 13.335938 C 25.585938 13.148438 25.65625 12.945312 25.683594 12.726562 C 25.710938 12.511719 25.699219 12.296875 25.640625 12.085938 L 25.425781 11.289062 L 24.632812 11.503906 C 24.421875 11.558594 24.230469 11.652344 24.058594 11.785156 C 23.882812 11.917969 23.742188 12.082031 23.632812 12.269531 C 23.523438 12.457031 23.453125 12.660156 23.425781 12.878906 C 23.398438 13.09375 23.410156 13.308594 23.46875 13.519531 L 23.578125 13.929688 C 23.777344 13.589844 23.890625 13.222656 23.917969 12.828125 C 23.917969 12.714844 23.957031 12.617188 24.039062 12.535156 C 24.117188 12.457031 24.214844 12.417969 24.328125 12.417969 C 24.441406 12.417969 24.539062 12.457031 24.621094 12.535156 C 24.699219 12.617188 24.738281 12.714844 24.738281 12.828125 C 24.71875 13.277344 24.609375 13.699219 24.414062 14.101562 Z M 12.394531 11.183594 C 12.558594 11.183594 12.71875 11.214844 12.867188 11.277344 C 13.019531 11.339844 13.152344 11.429688 13.269531 11.542969 C 13.382812 11.660156 13.472656 11.792969 13.535156 11.945312 C 13.597656 12.09375 13.628906 12.253906 13.628906 12.417969 C 13.628906 12.578125 13.597656 12.738281 13.535156 12.890625 C 13.472656 13.039062 13.382812 13.171875 13.269531 13.289062 C 13.152344 13.40625 13.019531 13.496094 12.867188 13.558594 C 12.71875 13.621094 12.558594 13.652344 12.394531 13.652344 C 12.230469 13.652344 12.074219 13.621094 11.921875 13.558594 C 11.773438 13.496094 11.640625 13.40625 11.523438 13.289062 C 11.40625 13.171875 11.316406 13.039062 11.253906 12.890625 C 11.191406 12.738281 11.160156 12.578125 11.160156 12.417969 C 11.160156 12.253906 11.191406 12.09375 11.253906 11.945312 C 11.316406 11.792969 11.40625 11.660156 11.523438 11.542969 C 11.640625 11.429688 11.773438 11.339844 11.921875 11.277344 C 12.074219 11.214844 12.230469 11.183594 12.394531 11.183594 Z M 12.394531 11.183594 " fill-opacity="1" fill-rule="evenodd"/></g></svg>