<svg xmlns="http://www.w3.org/2000/svg" xmlns:xlink="http://www.w3.org/1999/xlink" width="50" zoomAndPan="magnify" viewBox="0 0 37.5 37.499999" height="50" preserveAspectRatio="xMidYMid meet" version="1.0"><defs><clipPath id="id1"><path d="M 2.707031 2.707031 L 35.707031 2.707031 L 35.707031 35.707031 L 2.707031 35.707031 Z M 2.707031 2.707031 " clip-rule="nonzero"/></clipPath><clipPath id="id2"><path d="M 2.140625 2.140625 L 35.140625 2.140625 L 35.140625 35.140625 L 2.140625 35.140625 Z M 2.140625 2.140625 " clip-rule="nonzero"/></clipPath><clipPath id="id3"><path d="M 9.816406 9.144531 L 27.066406 9.144531 L 27.066406 26.394531 L 9.816406 26.394531 Z M 9.816406 9.144531 " clip-rule="nonzero"/></clipPath></defs><g clip-path="url(#id1)"><path fill="#69ab3d" d="M 19.207031 2.707031 C 10.09375 2.707031 2.707031 10.09375 2.707031 19.207031 C 2.707031 28.316406 10.09375 35.707031 19.207031 35.707031 C 28.316406 35.707031 35.707031 28.316406 35.707031 19.207031 C 35.707031 10.09375 28.316406 2.707031 19.207031 2.707031 " fill-opacity="1" fill-rule="nonzero"/></g><g clip-path="url(#id2)"><path fill="#ffffff" d="M 18.640625 2.140625 C 9.527344 2.140625 2.140625 9.527344 2.140625 18.640625 C 2.140625 27.753906 9.527344 35.140625 18.640625 35.140625 C 27.753906 35.140625 35.140625 27.753906 35.140625 18.640625 C 35.140625 9.527344 27.753906 2.140625 18.640625 2.140625 " fill-opacity="1" fill-rule="nonzero"/></g><g clip-path="url(#id3)"><path fill="#69ab3d" d="M 10.699219 18.578125 L 10.699219 24.246094 L 10.269531 24.246094 C 10.148438 24.246094 10.046875 24.285156 9.964844 24.371094 C 9.878906 24.453125 9.835938 24.554688 9.835938 24.675781 L 9.835938 25.964844 C 9.835938 26.082031 9.878906 26.183594 9.964844 26.269531 C 10.046875 26.351562 10.148438 26.394531 10.269531 26.394531 L 26.613281 26.394531 C 26.734375 26.394531 26.835938 26.351562 26.917969 26.269531 C 27.003906 26.183594 27.042969 26.082031 27.042969 25.964844 L 27.042969 24.675781 C 27.042969 24.554688 27.003906 24.453125 26.917969 24.371094 C 26.835938 24.285156 26.734375 24.246094 26.613281 24.246094 L 26.183594 24.246094 L 26.183594 18.578125 C 26.441406 18.476562 26.648438 18.3125 26.804688 18.085938 C 26.960938 17.859375 27.042969 17.605469 27.042969 17.332031 C 27.046875 16.941406 26.902344 16.613281 26.613281 16.351562 L 18.730469 9.296875 C 18.648438 9.222656 18.550781 9.183594 18.441406 9.183594 C 18.332031 9.183594 18.234375 9.222656 18.152344 9.296875 L 10.269531 16.347656 C 9.980469 16.609375 9.835938 16.9375 9.835938 17.328125 C 9.832031 17.695312 9.960938 18.007812 10.226562 18.265625 C 10.359375 18.40625 10.515625 18.507812 10.699219 18.578125 Z M 26.183594 25.105469 L 10.699219 25.105469 L 10.699219 25.535156 L 26.183594 25.535156 Z M 25.324219 18.585938 C 25.117188 18.53125 24.933594 18.433594 24.773438 18.292969 L 18.441406 12.359375 L 12.585938 17.847656 C 12.269531 18.128906 11.925781 18.375 11.558594 18.585938 L 11.558594 24.246094 L 14.570312 24.246094 C 14.40625 24.121094 14.253906 23.988281 14.109375 23.84375 C 13.269531 23.003906 12.847656 21.988281 12.847656 20.804688 C 12.847656 20.574219 12.890625 20.355469 12.980469 20.144531 C 13.066406 19.933594 13.191406 19.746094 13.351562 19.585938 C 13.515625 19.425781 13.699219 19.300781 13.910156 19.214844 C 14.121094 19.125 14.339844 19.082031 14.570312 19.082031 C 14.859375 19.082031 15.144531 19.109375 15.429688 19.167969 L 15.429688 19.082031 C 15.429688 18.683594 15.507812 18.296875 15.660156 17.929688 C 15.8125 17.5625 16.03125 17.234375 16.3125 16.953125 C 16.59375 16.671875 16.917969 16.453125 17.289062 16.300781 C 17.65625 16.148438 18.042969 16.070312 18.441406 16.070312 C 18.839844 16.070312 19.222656 16.148438 19.59375 16.300781 C 19.960938 16.453125 20.289062 16.671875 20.570312 16.953125 C 20.851562 17.234375 21.070312 17.5625 21.222656 17.929688 C 21.375 18.296875 21.453125 18.683594 21.453125 19.082031 L 21.453125 19.167969 C 21.734375 19.109375 22.023438 19.082031 22.3125 19.082031 C 22.539062 19.082031 22.761719 19.125 22.972656 19.214844 C 23.183594 19.300781 23.367188 19.425781 23.53125 19.585938 C 23.691406 19.746094 23.816406 19.933594 23.902344 20.144531 C 23.988281 20.355469 24.035156 20.574219 24.035156 20.804688 C 24.03125 21.992188 23.613281 23.003906 22.773438 23.84375 C 22.628906 23.988281 22.476562 24.121094 22.3125 24.246094 L 25.324219 24.246094 Z M 19.730469 24.246094 C 20.1875 24.246094 20.628906 24.15625 21.046875 23.980469 C 21.46875 23.808594 21.84375 23.558594 22.164062 23.234375 C 22.488281 22.914062 22.738281 22.542969 22.910156 22.121094 C 23.085938 21.699219 23.171875 21.257812 23.171875 20.804688 C 23.171875 20.566406 23.089844 20.363281 22.921875 20.195312 C 22.753906 20.027344 22.550781 19.941406 22.3125 19.941406 C 21.855469 19.941406 21.417969 20.03125 20.996094 20.203125 C 20.574219 20.378906 20.203125 20.628906 19.878906 20.949219 C 19.554688 21.273438 19.308594 21.644531 19.132812 22.066406 C 18.957031 22.488281 18.871094 22.925781 18.871094 23.382812 L 18.871094 23.636719 L 21.578125 20.925781 C 21.660156 20.84375 21.761719 20.800781 21.882812 20.800781 C 22 20.800781 22.101562 20.84375 22.1875 20.929688 C 22.273438 21.011719 22.3125 21.113281 22.3125 21.234375 C 22.3125 21.351562 22.273438 21.453125 22.1875 21.539062 L 19.476562 24.246094 Z M 18.011719 23.382812 C 18.011719 22.925781 17.921875 22.488281 17.75 22.066406 C 17.574219 21.644531 17.324219 21.273438 17.003906 20.949219 C 16.679688 20.628906 16.308594 20.378906 15.886719 20.203125 C 15.464844 20.03125 15.027344 19.941406 14.570312 19.941406 C 14.332031 19.941406 14.128906 20.027344 13.960938 20.195312 C 13.792969 20.363281 13.710938 20.566406 13.710938 20.804688 C 13.710938 21.257812 13.796875 21.699219 13.972656 22.121094 C 14.144531 22.542969 14.394531 22.914062 14.71875 23.234375 C 15.039062 23.558594 15.410156 23.808594 15.832031 23.980469 C 16.253906 24.15625 16.695312 24.246094 17.152344 24.246094 L 17.40625 24.246094 L 14.695312 21.539062 C 14.609375 21.453125 14.566406 21.351562 14.566406 21.234375 C 14.566406 21.113281 14.609375 21.011719 14.695312 20.925781 C 14.777344 20.84375 14.878906 20.800781 15 20.800781 C 15.117188 20.800781 15.222656 20.84375 15.304688 20.925781 L 18.011719 23.636719 Z M 20.59375 19.4375 L 20.59375 19.082031 C 20.59375 18.796875 20.539062 18.523438 20.429688 18.257812 C 20.320312 17.996094 20.164062 17.761719 19.960938 17.5625 C 19.761719 17.359375 19.527344 17.203125 19.265625 17.09375 C 19 16.984375 18.726562 16.929688 18.441406 16.929688 C 18.15625 16.929688 17.882812 16.984375 17.617188 17.09375 C 17.355469 17.203125 17.121094 17.359375 16.921875 17.5625 C 16.71875 17.761719 16.5625 17.996094 16.453125 18.257812 C 16.34375 18.523438 16.289062 18.796875 16.289062 19.082031 L 16.289062 19.4375 C 16.785156 19.660156 17.226562 19.960938 17.609375 20.34375 C 17.953125 20.683594 18.230469 21.074219 18.441406 21.507812 C 18.652344 21.074219 18.929688 20.683594 19.269531 20.34375 C 19.65625 19.960938 20.097656 19.660156 20.59375 19.4375 Z M 18.011719 19.082031 L 18.871094 19.082031 C 18.988281 19.082031 19.089844 19.039062 19.175781 18.957031 C 19.257812 18.871094 19.300781 18.769531 19.300781 18.652344 C 19.300781 18.53125 19.257812 18.433594 19.175781 18.347656 C 19.089844 18.265625 18.988281 18.222656 18.871094 18.222656 L 18.011719 18.222656 C 17.890625 18.222656 17.789062 18.265625 17.707031 18.347656 C 17.621094 18.433594 17.582031 18.53125 17.582031 18.652344 C 17.582031 18.769531 17.621094 18.871094 17.707031 18.957031 C 17.789062 19.039062 17.890625 19.082031 18.011719 19.082031 Z M 25.753906 17.792969 C 25.871094 17.789062 25.96875 17.742188 26.050781 17.660156 C 26.140625 17.566406 26.183594 17.457031 26.183594 17.332031 C 26.1875 17.191406 26.136719 17.078125 26.03125 16.992188 L 18.441406 10.195312 L 10.851562 16.988281 C 10.746094 17.074219 10.695312 17.1875 10.699219 17.328125 C 10.695312 17.453125 10.742188 17.5625 10.832031 17.652344 C 10.910156 17.742188 11.011719 17.785156 11.128906 17.792969 C 11.273438 17.796875 11.402344 17.753906 11.519531 17.667969 L 18.148438 11.457031 C 18.230469 11.378906 18.328125 11.339844 18.441406 11.339844 C 18.554688 11.339844 18.652344 11.378906 18.734375 11.457031 L 25.363281 17.667969 C 25.480469 17.753906 25.609375 17.796875 25.753906 17.792969 Z M 25.753906 17.792969 " fill-opacity="1" fill-rule="evenodd"/></g></svg>