<svg xmlns="http://www.w3.org/2000/svg" xmlns:xlink="http://www.w3.org/1999/xlink" width="500" zoomAndPan="magnify" viewBox="0 0 375 112.499997" height="150" preserveAspectRatio="xMidYMid meet" version="1.0"><defs><g/><clipPath id="id1"><path d="M 12.03125 6.433594 L 125.832031 6.433594 L 125.832031 105.292969 L 12.03125 105.292969 Z M 12.03125 6.433594 " clip-rule="nonzero"/></clipPath></defs><g fill="#69ab3d" fill-opacity="1"><g transform="translate(135.809925, 63.080563)"><g><path d="M 31.15625 0 L 26.6875 0 L 26.6875 -14.59375 L 9.25 -14.59375 L 9.25 0 L 4.78125 0 L 4.78125 -33.265625 L 9.25 -33.265625 L 9.25 -18.859375 L 26.6875 -18.859375 L 26.6875 -33.265625 L 31.15625 -33.265625 Z M 31.15625 0 "/></g></g></g><g fill="#69ab3d" fill-opacity="1"><g transform="translate(171.73711, 63.080563)"><g><path d="M 21.4375 -19.046875 L 21.4375 0 L 17.578125 0 L 17.296875 -3.640625 C 16.648438 -2.347656 15.648438 -1.296875 14.296875 -0.484375 C 12.953125 0.328125 11.453125 0.734375 9.796875 0.734375 C 8.046875 0.734375 6.609375 0.207031 5.484375 -0.84375 C 4.367188 -1.90625 3.785156 -3.28125 3.734375 -4.96875 L 3.734375 -19.046875 L 8 -19.046875 L 8 -6.484375 C 8.0625 -5.410156 8.375 -4.554688 8.9375 -3.921875 C 9.507812 -3.296875 10.363281 -2.96875 11.5 -2.9375 C 12.539062 -2.9375 13.488281 -3.25 14.34375 -3.875 C 15.207031 -4.507812 15.890625 -5.378906 16.390625 -6.484375 C 16.898438 -7.585938 17.15625 -8.816406 17.15625 -10.171875 L 17.15625 -19.046875 Z M 21.4375 -19.046875 "/></g></g></g><g fill="#69ab3d" fill-opacity="1"><g transform="translate(196.899935, 63.080563)"><g><path d="M 9.890625 -27.421875 L 9.890625 -19 L 15.09375 -19 L 15.09375 -15.59375 L 9.890625 -15.59375 L 9.890625 0 L 5.5625 0 L 5.5625 -15.59375 L 2.078125 -15.59375 L 2.078125 -19 L 5.5625 -19 L 5.5625 -27.421875 Z M 9.890625 -27.421875 "/></g></g></g><g fill="#69ab3d" fill-opacity="1"><g transform="translate(213.460483, 63.080563)"><g><path d="M 23.28125 -19.046875 L 23.28125 0 L 19 0 L 19 -3.125 C 18.320312 -2.238281 17.335938 -1.421875 16.046875 -0.671875 C 14.765625 0.078125 13.3125 0.453125 11.6875 0.453125 C 9.875 0.453125 8.238281 0.0625 6.78125 -0.71875 C 5.332031 -1.5 4.1875 -2.640625 3.34375 -4.140625 C 2.5 -5.640625 2.078125 -7.4375 2.078125 -9.53125 C 2.078125 -11.613281 2.507812 -13.425781 3.375 -14.96875 C 4.25 -16.519531 5.429688 -17.71875 6.921875 -18.5625 C 8.410156 -19.40625 10.0625 -19.828125 11.875 -19.828125 C 13.5 -19.828125 14.910156 -19.472656 16.109375 -18.765625 C 17.304688 -18.066406 18.269531 -17.148438 19 -16.015625 L 19.328125 -19.046875 Z M 12.84375 -3.078125 C 14.40625 -3.078125 15.742188 -3.515625 16.859375 -4.390625 C 17.984375 -5.265625 18.695312 -6.453125 19 -7.953125 L 19 -11.734375 C 18.632812 -13.085938 17.867188 -14.1875 16.703125 -15.03125 C 15.535156 -15.875 14.203125 -16.296875 12.703125 -16.296875 C 11.566406 -16.296875 10.515625 -16.019531 9.546875 -15.46875 C 8.578125 -14.914062 7.804688 -14.140625 7.234375 -13.140625 C 6.671875 -12.140625 6.390625 -11.007812 6.390625 -9.75 C 6.390625 -8.53125 6.679688 -7.410156 7.265625 -6.390625 C 7.847656 -5.378906 8.628906 -4.570312 9.609375 -3.96875 C 10.597656 -3.375 11.675781 -3.078125 12.84375 -3.078125 Z M 12.84375 -3.078125 "/></g></g></g><g fill="#69ab3d" fill-opacity="1"><g transform="translate(240.46337, 63.080563)"><g><path d="M 15.546875 -19.78125 C 17.328125 -19.78125 18.800781 -19.25 19.96875 -18.1875 C 21.132812 -17.132812 21.734375 -15.765625 21.765625 -14.078125 L 21.765625 0 L 17.4375 0 L 17.4375 -12.609375 C 17.375 -13.679688 17.050781 -14.523438 16.46875 -15.140625 C 15.882812 -15.753906 15.007812 -16.078125 13.84375 -16.109375 C 12.15625 -16.109375 10.757812 -15.429688 9.65625 -14.078125 C 8.550781 -12.734375 8 -11.015625 8 -8.921875 L 8 0 L 3.734375 0 L 3.734375 -19.046875 L 7.59375 -19.046875 L 7.875 -15.375 C 8.539062 -16.75 9.550781 -17.828125 10.90625 -18.609375 C 12.257812 -19.390625 13.804688 -19.78125 15.546875 -19.78125 Z M 15.546875 -19.78125 "/></g></g></g><g fill="#69ab3d" fill-opacity="1"><g transform="translate(265.902212, 63.080563)"><g><path d="M 9.203125 -18.21875 L 9.75 -19.09375 L 23.375 -33.265625 L 29.125 -33.265625 L 15.375 -19 L 29.90625 0 L 24.25 0 L 12.109375 -16.15625 L 9.296875 -13.4375 L 9.34375 0 L 4.78125 0 L 4.78125 -33.265625 L 9.34375 -33.265625 L 9.34375 -19.875 Z M 9.203125 -18.21875 "/></g></g></g><g fill="#69ab3d" fill-opacity="1"><g transform="translate(297.183244, 63.080563)"><g><path d="M 8 -19.046875 L 8 0 L 3.734375 0 L 3.734375 -19.046875 Z M 3.390625 -26.28125 C 3.390625 -26.945312 3.648438 -27.507812 4.171875 -27.96875 C 4.691406 -28.4375 5.289062 -28.671875 5.96875 -28.671875 C 6.644531 -28.671875 7.234375 -28.4375 7.734375 -27.96875 C 8.242188 -27.507812 8.5 -26.945312 8.5 -26.28125 C 8.5 -25.601562 8.242188 -25.03125 7.734375 -24.5625 C 7.234375 -24.101562 6.644531 -23.875 5.96875 -23.875 C 5.289062 -23.875 4.691406 -24.101562 4.171875 -24.5625 C 3.648438 -25.03125 3.390625 -25.601562 3.390625 -26.28125 Z M 3.390625 -26.28125 "/></g></g></g><g fill="#69ab3d" fill-opacity="1"><g transform="translate(308.91363, 63.080563)"><g><path d="M 9.890625 -27.421875 L 9.890625 -19 L 15.09375 -19 L 15.09375 -15.59375 L 9.890625 -15.59375 L 9.890625 0 L 5.5625 0 L 5.5625 -15.59375 L 2.078125 -15.59375 L 2.078125 -19 L 5.5625 -19 L 5.5625 -27.421875 Z M 9.890625 -27.421875 "/></g></g></g><g fill="#69ab3d" fill-opacity="1"><g transform="translate(325.474177, 63.080563)"><g><path d="M 23.28125 -19.046875 L 23.28125 0 L 19 0 L 19 -3.125 C 18.320312 -2.238281 17.335938 -1.421875 16.046875 -0.671875 C 14.765625 0.078125 13.3125 0.453125 11.6875 0.453125 C 9.875 0.453125 8.238281 0.0625 6.78125 -0.71875 C 5.332031 -1.5 4.1875 -2.640625 3.34375 -4.140625 C 2.5 -5.640625 2.078125 -7.4375 2.078125 -9.53125 C 2.078125 -11.613281 2.507812 -13.425781 3.375 -14.96875 C 4.25 -16.519531 5.429688 -17.71875 6.921875 -18.5625 C 8.410156 -19.40625 10.0625 -19.828125 11.875 -19.828125 C 13.5 -19.828125 14.910156 -19.472656 16.109375 -18.765625 C 17.304688 -18.066406 18.269531 -17.148438 19 -16.015625 L 19.328125 -19.046875 Z M 12.84375 -3.078125 C 14.40625 -3.078125 15.742188 -3.515625 16.859375 -4.390625 C 17.984375 -5.265625 18.695312 -6.453125 19 -7.953125 L 19 -11.734375 C 18.632812 -13.085938 17.867188 -14.1875 16.703125 -15.03125 C 15.535156 -15.875 14.203125 -16.296875 12.703125 -16.296875 C 11.566406 -16.296875 10.515625 -16.019531 9.546875 -15.46875 C 8.578125 -14.914062 7.804688 -14.140625 7.234375 -13.140625 C 6.671875 -12.140625 6.390625 -11.007812 6.390625 -9.75 C 6.390625 -8.53125 6.679688 -7.410156 7.265625 -6.390625 C 7.847656 -5.378906 8.628906 -4.570312 9.609375 -3.96875 C 10.597656 -3.375 11.675781 -3.078125 12.84375 -3.078125 Z M 12.84375 -3.078125 "/></g></g></g><g fill="#69ab3d" fill-opacity="1"><g transform="translate(140.505791, 82.853258)"><g><path d="M 3.171875 -8.765625 L 3.171875 -6.078125 L 4.828125 -6.078125 L 4.828125 -4.984375 L 3.171875 -4.984375 L 3.171875 0 L 1.78125 0 L 1.78125 -4.984375 L 0.65625 -4.984375 L 0.65625 -6.078125 L 1.78125 -6.078125 L 1.78125 -8.765625 Z M 3.171875 -8.765625 "/></g></g></g><g fill="#69ab3d" fill-opacity="1"><g transform="translate(145.805007, 82.853258)"><g><path d="M 7.453125 -6.09375 L 7.453125 0 L 6.078125 0 L 6.078125 -1 C 5.859375 -0.71875 5.539062 -0.457031 5.125 -0.21875 C 4.71875 0.0195312 4.253906 0.140625 3.734375 0.140625 C 3.160156 0.140625 2.640625 0.015625 2.171875 -0.234375 C 1.703125 -0.484375 1.332031 -0.847656 1.0625 -1.328125 C 0.789062 -1.804688 0.65625 -2.378906 0.65625 -3.046875 C 0.65625 -3.710938 0.796875 -4.289062 1.078125 -4.78125 C 1.359375 -5.28125 1.734375 -5.664062 2.203125 -5.9375 C 2.679688 -6.207031 3.210938 -6.34375 3.796875 -6.34375 C 4.316406 -6.34375 4.765625 -6.226562 5.140625 -6 C 5.523438 -5.78125 5.835938 -5.488281 6.078125 -5.125 L 6.1875 -6.09375 Z M 4.109375 -0.984375 C 4.609375 -0.984375 5.035156 -1.125 5.390625 -1.40625 C 5.753906 -1.6875 5.984375 -2.066406 6.078125 -2.546875 L 6.078125 -3.75 C 5.960938 -4.1875 5.71875 -4.535156 5.34375 -4.796875 C 4.96875 -5.066406 4.539062 -5.203125 4.0625 -5.203125 C 3.695312 -5.203125 3.359375 -5.113281 3.046875 -4.9375 C 2.742188 -4.769531 2.5 -4.523438 2.3125 -4.203125 C 2.132812 -3.878906 2.046875 -3.519531 2.046875 -3.125 C 2.046875 -2.726562 2.140625 -2.367188 2.328125 -2.046875 C 2.515625 -1.722656 2.765625 -1.460938 3.078125 -1.265625 C 3.390625 -1.078125 3.734375 -0.984375 4.109375 -0.984375 Z M 4.109375 -0.984375 "/></g></g></g><g fill="#69ab3d" fill-opacity="1"><g transform="translate(154.445673, 82.853258)"><g><path d="M 4.96875 -6.328125 C 5.539062 -6.328125 6.015625 -6.15625 6.390625 -5.8125 C 6.765625 -5.476562 6.957031 -5.039062 6.96875 -4.5 L 6.96875 0 L 5.578125 0 L 5.578125 -4.03125 C 5.554688 -4.375 5.453125 -4.644531 5.265625 -4.84375 C 5.078125 -5.039062 4.800781 -5.144531 4.4375 -5.15625 C 3.894531 -5.15625 3.445312 -4.9375 3.09375 -4.5 C 2.738281 -4.070312 2.5625 -3.523438 2.5625 -2.859375 L 2.5625 0 L 1.1875 0 L 1.1875 -6.09375 L 2.421875 -6.09375 L 2.515625 -4.921875 C 2.734375 -5.359375 3.054688 -5.703125 3.484375 -5.953125 C 3.921875 -6.203125 4.414062 -6.328125 4.96875 -6.328125 Z M 4.96875 -6.328125 "/></g></g></g><g fill="#69ab3d" fill-opacity="1"><g transform="translate(162.585859, 82.853258)"><g><path d="M 7.625 -6.09375 L 7.625 0.046875 C 7.625 0.609375 7.476562 1.113281 7.1875 1.5625 C 6.90625 2.007812 6.503906 2.363281 5.984375 2.625 C 5.460938 2.894531 4.847656 3.03125 4.140625 3.03125 C 3.515625 3.03125 2.976562 2.925781 2.53125 2.71875 C 2.09375 2.507812 1.644531 2.207031 1.1875 1.8125 L 2 0.875 C 2.332031 1.1875 2.664062 1.421875 3 1.578125 C 3.332031 1.742188 3.703125 1.828125 4.109375 1.828125 C 4.785156 1.828125 5.304688 1.664062 5.671875 1.34375 C 6.035156 1.019531 6.222656 0.582031 6.234375 0.03125 L 6.25 -1.125 C 6.03125 -0.738281 5.703125 -0.429688 5.265625 -0.203125 C 4.828125 0.0234375 4.320312 0.140625 3.75 0.140625 C 3.195312 0.140625 2.679688 0 2.203125 -0.28125 C 1.734375 -0.5625 1.359375 -0.945312 1.078125 -1.4375 C 0.796875 -1.925781 0.65625 -2.472656 0.65625 -3.078125 C 0.65625 -3.691406 0.800781 -4.242188 1.09375 -4.734375 C 1.382812 -5.234375 1.773438 -5.625 2.265625 -5.90625 C 2.753906 -6.195312 3.28125 -6.34375 3.84375 -6.34375 C 4.363281 -6.34375 4.84375 -6.238281 5.28125 -6.03125 C 5.726562 -5.820312 6.054688 -5.554688 6.265625 -5.234375 L 6.375 -6.09375 Z M 4.15625 -0.984375 C 4.675781 -0.984375 5.125 -1.125 5.5 -1.40625 C 5.882812 -1.695312 6.132812 -2.070312 6.25 -2.53125 L 6.25 -3.734375 C 6.113281 -4.179688 5.851562 -4.535156 5.46875 -4.796875 C 5.09375 -5.066406 4.65625 -5.203125 4.15625 -5.203125 C 3.550781 -5.203125 3.046875 -5.003906 2.640625 -4.609375 C 2.242188 -4.222656 2.046875 -3.726562 2.046875 -3.125 C 2.046875 -2.726562 2.140625 -2.367188 2.328125 -2.046875 C 2.515625 -1.722656 2.769531 -1.460938 3.09375 -1.265625 C 3.414062 -1.078125 3.769531 -0.984375 4.15625 -0.984375 Z M 4.15625 -0.984375 "/></g></g></g><g fill="#69ab3d" fill-opacity="1"><g transform="translate(171.403166, 82.853258)"><g><path d="M 7.625 -6.09375 L 7.625 0.046875 C 7.625 0.609375 7.476562 1.113281 7.1875 1.5625 C 6.90625 2.007812 6.503906 2.363281 5.984375 2.625 C 5.460938 2.894531 4.847656 3.03125 4.140625 3.03125 C 3.515625 3.03125 2.976562 2.925781 2.53125 2.71875 C 2.09375 2.507812 1.644531 2.207031 1.1875 1.8125 L 2 0.875 C 2.332031 1.1875 2.664062 1.421875 3 1.578125 C 3.332031 1.742188 3.703125 1.828125 4.109375 1.828125 C 4.785156 1.828125 5.304688 1.664062 5.671875 1.34375 C 6.035156 1.019531 6.222656 0.582031 6.234375 0.03125 L 6.25 -1.125 C 6.03125 -0.738281 5.703125 -0.429688 5.265625 -0.203125 C 4.828125 0.0234375 4.320312 0.140625 3.75 0.140625 C 3.195312 0.140625 2.679688 0 2.203125 -0.28125 C 1.734375 -0.5625 1.359375 -0.945312 1.078125 -1.4375 C 0.796875 -1.925781 0.65625 -2.472656 0.65625 -3.078125 C 0.65625 -3.691406 0.800781 -4.242188 1.09375 -4.734375 C 1.382812 -5.234375 1.773438 -5.625 2.265625 -5.90625 C 2.753906 -6.195312 3.28125 -6.34375 3.84375 -6.34375 C 4.363281 -6.34375 4.84375 -6.238281 5.28125 -6.03125 C 5.726562 -5.820312 6.054688 -5.554688 6.265625 -5.234375 L 6.375 -6.09375 Z M 4.15625 -0.984375 C 4.675781 -0.984375 5.125 -1.125 5.5 -1.40625 C 5.882812 -1.695312 6.132812 -2.070312 6.25 -2.53125 L 6.25 -3.734375 C 6.113281 -4.179688 5.851562 -4.535156 5.46875 -4.796875 C 5.09375 -5.066406 4.65625 -5.203125 4.15625 -5.203125 C 3.550781 -5.203125 3.046875 -5.003906 2.640625 -4.609375 C 2.242188 -4.222656 2.046875 -3.726562 2.046875 -3.125 C 2.046875 -2.726562 2.140625 -2.367188 2.328125 -2.046875 C 2.515625 -1.722656 2.769531 -1.460938 3.09375 -1.265625 C 3.414062 -1.078125 3.769531 -0.984375 4.15625 -0.984375 Z M 4.15625 -0.984375 "/></g></g></g><g fill="#69ab3d" fill-opacity="1"><g transform="translate(180.220472, 82.853258)"><g><path d="M 6.859375 -6.09375 L 6.859375 0 L 5.625 0 L 5.53125 -1.15625 C 5.320312 -0.75 5.003906 -0.414062 4.578125 -0.15625 C 4.148438 0.101562 3.671875 0.234375 3.140625 0.234375 C 2.578125 0.234375 2.113281 0.0664062 1.75 -0.265625 C 1.394531 -0.609375 1.207031 -1.050781 1.1875 -1.59375 L 1.1875 -6.09375 L 2.5625 -6.09375 L 2.5625 -2.078125 C 2.582031 -1.734375 2.679688 -1.457031 2.859375 -1.25 C 3.046875 -1.050781 3.320312 -0.945312 3.6875 -0.9375 C 4.019531 -0.9375 4.320312 -1.035156 4.59375 -1.234375 C 4.863281 -1.441406 5.078125 -1.722656 5.234375 -2.078125 C 5.398438 -2.429688 5.484375 -2.820312 5.484375 -3.25 L 5.484375 -6.09375 Z M 6.859375 -6.09375 "/></g></g></g><g fill="#69ab3d" fill-opacity="1"><g transform="translate(188.272336, 82.853258)"><g><path d="M 4.96875 -6.328125 C 5.539062 -6.328125 6.015625 -6.15625 6.390625 -5.8125 C 6.765625 -5.476562 6.957031 -5.039062 6.96875 -4.5 L 6.96875 0 L 5.578125 0 L 5.578125 -4.03125 C 5.554688 -4.375 5.453125 -4.644531 5.265625 -4.84375 C 5.078125 -5.039062 4.800781 -5.144531 4.4375 -5.15625 C 3.894531 -5.15625 3.445312 -4.9375 3.09375 -4.5 C 2.738281 -4.070312 2.5625 -3.523438 2.5625 -2.859375 L 2.5625 0 L 1.1875 0 L 1.1875 -6.09375 L 2.421875 -6.09375 L 2.515625 -4.921875 C 2.734375 -5.359375 3.054688 -5.703125 3.484375 -5.953125 C 3.921875 -6.203125 4.414062 -6.328125 4.96875 -6.328125 Z M 4.96875 -6.328125 "/></g></g></g><g fill="#69ab3d" fill-opacity="1"><g transform="translate(196.412522, 82.853258)"><g><path d="M 7.625 -6.09375 L 7.625 0.046875 C 7.625 0.609375 7.476562 1.113281 7.1875 1.5625 C 6.90625 2.007812 6.503906 2.363281 5.984375 2.625 C 5.460938 2.894531 4.847656 3.03125 4.140625 3.03125 C 3.515625 3.03125 2.976562 2.925781 2.53125 2.71875 C 2.09375 2.507812 1.644531 2.207031 1.1875 1.8125 L 2 0.875 C 2.332031 1.1875 2.664062 1.421875 3 1.578125 C 3.332031 1.742188 3.703125 1.828125 4.109375 1.828125 C 4.785156 1.828125 5.304688 1.664062 5.671875 1.34375 C 6.035156 1.019531 6.222656 0.582031 6.234375 0.03125 L 6.25 -1.125 C 6.03125 -0.738281 5.703125 -0.429688 5.265625 -0.203125 C 4.828125 0.0234375 4.320312 0.140625 3.75 0.140625 C 3.195312 0.140625 2.679688 0 2.203125 -0.28125 C 1.734375 -0.5625 1.359375 -0.945312 1.078125 -1.4375 C 0.796875 -1.925781 0.65625 -2.472656 0.65625 -3.078125 C 0.65625 -3.691406 0.800781 -4.242188 1.09375 -4.734375 C 1.382812 -5.234375 1.773438 -5.625 2.265625 -5.90625 C 2.753906 -6.195312 3.28125 -6.34375 3.84375 -6.34375 C 4.363281 -6.34375 4.84375 -6.238281 5.28125 -6.03125 C 5.726562 -5.820312 6.054688 -5.554688 6.265625 -5.234375 L 6.375 -6.09375 Z M 4.15625 -0.984375 C 4.675781 -0.984375 5.125 -1.125 5.5 -1.40625 C 5.882812 -1.695312 6.132812 -2.070312 6.25 -2.53125 L 6.25 -3.734375 C 6.113281 -4.179688 5.851562 -4.535156 5.46875 -4.796875 C 5.09375 -5.066406 4.65625 -5.203125 4.15625 -5.203125 C 3.550781 -5.203125 3.046875 -5.003906 2.640625 -4.609375 C 2.242188 -4.222656 2.046875 -3.726562 2.046875 -3.125 C 2.046875 -2.726562 2.140625 -2.367188 2.328125 -2.046875 C 2.515625 -1.722656 2.769531 -1.460938 3.09375 -1.265625 C 3.414062 -1.078125 3.769531 -0.984375 4.15625 -0.984375 Z M 4.15625 -0.984375 "/></g></g></g><g fill="#69ab3d" fill-opacity="1"><g transform="translate(205.229828, 82.853258)"><g/></g></g><g fill="#69ab3d" fill-opacity="1"><g transform="translate(209.881361, 82.853258)"><g><path d="M 0.453125 2.09375 C 1.046875 1.59375 1.34375 0.890625 1.34375 -0.015625 L 1.34375 -6.09375 L 2.71875 -6.09375 L 2.71875 0.046875 C 2.71875 0.742188 2.601562 1.328125 2.375 1.796875 C 2.144531 2.265625 1.78125 2.644531 1.28125 2.9375 Z M 0.765625 -8.40625 C 0.765625 -8.625 0.847656 -8.804688 1.015625 -8.953125 C 1.179688 -9.097656 1.375 -9.171875 1.59375 -9.171875 C 1.800781 -9.171875 1.988281 -9.097656 2.15625 -8.953125 C 2.320312 -8.804688 2.40625 -8.625 2.40625 -8.40625 C 2.40625 -8.1875 2.320312 -8.003906 2.15625 -7.859375 C 1.988281 -7.710938 1.800781 -7.640625 1.59375 -7.640625 C 1.375 -7.640625 1.179688 -7.710938 1.015625 -7.859375 C 0.847656 -8.003906 0.765625 -8.1875 0.765625 -8.40625 Z M 0.765625 -8.40625 "/></g></g></g><g fill="#69ab3d" fill-opacity="1"><g transform="translate(213.70857, 82.853258)"><g><path d="M 7.453125 -6.09375 L 7.453125 0 L 6.078125 0 L 6.078125 -1 C 5.859375 -0.71875 5.539062 -0.457031 5.125 -0.21875 C 4.71875 0.0195312 4.253906 0.140625 3.734375 0.140625 C 3.160156 0.140625 2.640625 0.015625 2.171875 -0.234375 C 1.703125 -0.484375 1.332031 -0.847656 1.0625 -1.328125 C 0.789062 -1.804688 0.65625 -2.378906 0.65625 -3.046875 C 0.65625 -3.710938 0.796875 -4.289062 1.078125 -4.78125 C 1.359375 -5.28125 1.734375 -5.664062 2.203125 -5.9375 C 2.679688 -6.207031 3.210938 -6.34375 3.796875 -6.34375 C 4.316406 -6.34375 4.765625 -6.226562 5.140625 -6 C 5.523438 -5.78125 5.835938 -5.488281 6.078125 -5.125 L 6.1875 -6.09375 Z M 4.109375 -0.984375 C 4.609375 -0.984375 5.035156 -1.125 5.390625 -1.40625 C 5.753906 -1.6875 5.984375 -2.066406 6.078125 -2.546875 L 6.078125 -3.75 C 5.960938 -4.1875 5.71875 -4.535156 5.34375 -4.796875 C 4.96875 -5.066406 4.539062 -5.203125 4.0625 -5.203125 C 3.695312 -5.203125 3.359375 -5.113281 3.046875 -4.9375 C 2.742188 -4.769531 2.5 -4.523438 2.3125 -4.203125 C 2.132812 -3.878906 2.046875 -3.519531 2.046875 -3.125 C 2.046875 -2.726562 2.140625 -2.367188 2.328125 -2.046875 C 2.515625 -1.722656 2.765625 -1.460938 3.078125 -1.265625 C 3.390625 -1.078125 3.734375 -0.984375 4.109375 -0.984375 Z M 4.109375 -0.984375 "/></g></g></g><g fill="#69ab3d" fill-opacity="1"><g transform="translate(222.349236, 82.853258)"><g><path d="M 9.65625 -6.09375 L 6.84375 0.375 L 4.890625 -3.8125 L 3.109375 0.375 L 0.28125 -6.09375 L 1.640625 -6.09375 L 3.265625 -2.40625 L 4.40625 -5.046875 L 3.921875 -6.09375 L 5.109375 -6.09375 L 6.75 -2.3125 L 8.296875 -6.09375 Z M 9.65625 -6.09375 "/></g></g></g><g fill="#69ab3d" fill-opacity="1"><g transform="translate(232.285261, 82.853258)"><g><path d="M 7.453125 -6.09375 L 7.453125 0 L 6.078125 0 L 6.078125 -1 C 5.859375 -0.71875 5.539062 -0.457031 5.125 -0.21875 C 4.71875 0.0195312 4.253906 0.140625 3.734375 0.140625 C 3.160156 0.140625 2.640625 0.015625 2.171875 -0.234375 C 1.703125 -0.484375 1.332031 -0.847656 1.0625 -1.328125 C 0.789062 -1.804688 0.65625 -2.378906 0.65625 -3.046875 C 0.65625 -3.710938 0.796875 -4.289062 1.078125 -4.78125 C 1.359375 -5.28125 1.734375 -5.664062 2.203125 -5.9375 C 2.679688 -6.207031 3.210938 -6.34375 3.796875 -6.34375 C 4.316406 -6.34375 4.765625 -6.226562 5.140625 -6 C 5.523438 -5.78125 5.835938 -5.488281 6.078125 -5.125 L 6.1875 -6.09375 Z M 4.109375 -0.984375 C 4.609375 -0.984375 5.035156 -1.125 5.390625 -1.40625 C 5.753906 -1.6875 5.984375 -2.066406 6.078125 -2.546875 L 6.078125 -3.75 C 5.960938 -4.1875 5.71875 -4.535156 5.34375 -4.796875 C 4.96875 -5.066406 4.539062 -5.203125 4.0625 -5.203125 C 3.695312 -5.203125 3.359375 -5.113281 3.046875 -4.9375 C 2.742188 -4.769531 2.5 -4.523438 2.3125 -4.203125 C 2.132812 -3.878906 2.046875 -3.519531 2.046875 -3.125 C 2.046875 -2.726562 2.140625 -2.367188 2.328125 -2.046875 C 2.515625 -1.722656 2.765625 -1.460938 3.078125 -1.265625 C 3.390625 -1.078125 3.734375 -0.984375 4.109375 -0.984375 Z M 4.109375 -0.984375 "/></g></g></g><g fill="#69ab3d" fill-opacity="1"><g transform="translate(240.925927, 82.853258)"><g><path d="M 5.09375 -6.34375 C 5.644531 -6.34375 6.144531 -6.207031 6.59375 -5.9375 C 7.050781 -5.675781 7.410156 -5.304688 7.671875 -4.828125 C 7.941406 -4.347656 8.078125 -3.789062 8.078125 -3.15625 C 8.078125 -2.488281 7.9375 -1.898438 7.65625 -1.390625 C 7.375 -0.890625 6.988281 -0.507812 6.5 -0.25 C 6.007812 0.0078125 5.484375 0.140625 4.921875 0.140625 C 4.421875 0.140625 3.960938 0.046875 3.546875 -0.140625 C 3.140625 -0.335938 2.8125 -0.601562 2.5625 -0.9375 L 2.5625 0 L 1.1875 0 L 1.1875 -11.40625 L 2.5625 -11.40625 L 2.5625 -5.28125 C 2.8125 -5.601562 3.160156 -5.859375 3.609375 -6.046875 C 4.054688 -6.242188 4.550781 -6.34375 5.09375 -6.34375 Z M 4.625 -1.03125 C 5.21875 -1.03125 5.707031 -1.226562 6.09375 -1.625 C 6.488281 -2.03125 6.6875 -2.539062 6.6875 -3.15625 C 6.6875 -3.539062 6.59375 -3.890625 6.40625 -4.203125 C 6.226562 -4.523438 5.984375 -4.78125 5.671875 -4.96875 C 5.359375 -5.15625 5.007812 -5.25 4.625 -5.25 C 4.125 -5.25 3.679688 -5.113281 3.296875 -4.84375 C 2.921875 -4.570312 2.675781 -4.21875 2.5625 -3.78125 L 2.5625 -2.546875 C 2.675781 -2.109375 2.921875 -1.742188 3.296875 -1.453125 C 3.671875 -1.171875 4.113281 -1.03125 4.625 -1.03125 Z M 4.625 -1.03125 "/></g></g></g><g fill="#69ab3d" fill-opacity="1"><g transform="translate(249.654915, 82.853258)"><g/></g></g><g fill="#69ab3d" fill-opacity="1"><g transform="translate(254.306452, 82.853258)"><g><path d="M 3.359375 -2.921875 L 2.5625 -2.28125 L 2.5625 0 L 1.1875 0 L 1.1875 -11.40625 L 2.5625 -11.40625 L 2.5625 -3.703125 L 5.703125 -6.234375 L 6.546875 -5.5 L 4.296875 -3.6875 L 6.84375 0 L 5.234375 0 Z M 3.359375 -2.921875 "/></g></g></g><g fill="#69ab3d" fill-opacity="1"><g transform="translate(261.651759, 82.853258)"><g><path d="M 2.5625 -6.09375 L 2.5625 0 L 1.1875 0 L 1.1875 -6.09375 Z M 0.765625 -8.40625 C 0.765625 -8.625 0.847656 -8.804688 1.015625 -8.953125 C 1.179688 -9.097656 1.375 -9.171875 1.59375 -9.171875 C 1.800781 -9.171875 1.988281 -9.097656 2.15625 -8.953125 C 2.320312 -8.804688 2.40625 -8.625 2.40625 -8.40625 C 2.40625 -8.1875 2.320312 -8.003906 2.15625 -7.859375 C 1.988281 -7.710938 1.800781 -7.640625 1.59375 -7.640625 C 1.375 -7.640625 1.179688 -7.710938 1.015625 -7.859375 C 0.847656 -8.003906 0.765625 -8.1875 0.765625 -8.40625 Z M 0.765625 -8.40625 "/></g></g></g><g fill="#69ab3d" fill-opacity="1"><g transform="translate(265.405371, 82.853258)"><g><path d="M 3.171875 -8.765625 L 3.171875 -6.078125 L 4.828125 -6.078125 L 4.828125 -4.984375 L 3.171875 -4.984375 L 3.171875 0 L 1.78125 0 L 1.78125 -4.984375 L 0.65625 -4.984375 L 0.65625 -6.078125 L 1.78125 -6.078125 L 1.78125 -8.765625 Z M 3.171875 -8.765625 "/></g></g></g><g fill="#69ab3d" fill-opacity="1"><g transform="translate(270.704587, 82.853258)"><g><path d="M 7.453125 -6.09375 L 7.453125 0 L 6.078125 0 L 6.078125 -1 C 5.859375 -0.71875 5.539062 -0.457031 5.125 -0.21875 C 4.71875 0.0195312 4.253906 0.140625 3.734375 0.140625 C 3.160156 0.140625 2.640625 0.015625 2.171875 -0.234375 C 1.703125 -0.484375 1.332031 -0.847656 1.0625 -1.328125 C 0.789062 -1.804688 0.65625 -2.378906 0.65625 -3.046875 C 0.65625 -3.710938 0.796875 -4.289062 1.078125 -4.78125 C 1.359375 -5.28125 1.734375 -5.664062 2.203125 -5.9375 C 2.679688 -6.207031 3.210938 -6.34375 3.796875 -6.34375 C 4.316406 -6.34375 4.765625 -6.226562 5.140625 -6 C 5.523438 -5.78125 5.835938 -5.488281 6.078125 -5.125 L 6.1875 -6.09375 Z M 4.109375 -0.984375 C 4.609375 -0.984375 5.035156 -1.125 5.390625 -1.40625 C 5.753906 -1.6875 5.984375 -2.066406 6.078125 -2.546875 L 6.078125 -3.75 C 5.960938 -4.1875 5.71875 -4.535156 5.34375 -4.796875 C 4.96875 -5.066406 4.539062 -5.203125 4.0625 -5.203125 C 3.695312 -5.203125 3.359375 -5.113281 3.046875 -4.9375 C 2.742188 -4.769531 2.5 -4.523438 2.3125 -4.203125 C 2.132812 -3.878906 2.046875 -3.519531 2.046875 -3.125 C 2.046875 -2.726562 2.140625 -2.367188 2.328125 -2.046875 C 2.515625 -1.722656 2.765625 -1.460938 3.078125 -1.265625 C 3.390625 -1.078125 3.734375 -0.984375 4.109375 -0.984375 Z M 4.109375 -0.984375 "/></g></g></g><g fill="#69ab3d" fill-opacity="1"><g transform="translate(279.345253, 82.853258)"><g/></g></g><g fill="#69ab3d" fill-opacity="1"><g transform="translate(283.996782, 82.853258)"><g><path d="M 5.09375 -6.34375 C 5.644531 -6.34375 6.144531 -6.207031 6.59375 -5.9375 C 7.050781 -5.675781 7.410156 -5.304688 7.671875 -4.828125 C 7.941406 -4.347656 8.078125 -3.789062 8.078125 -3.15625 C 8.078125 -2.488281 7.9375 -1.898438 7.65625 -1.390625 C 7.375 -0.890625 6.988281 -0.507812 6.5 -0.25 C 6.007812 0.0078125 5.484375 0.140625 4.921875 0.140625 C 4.421875 0.140625 3.960938 0.046875 3.546875 -0.140625 C 3.140625 -0.335938 2.8125 -0.601562 2.5625 -0.9375 L 2.5625 0 L 1.1875 0 L 1.1875 -11.40625 L 2.5625 -11.40625 L 2.5625 -5.28125 C 2.8125 -5.601562 3.160156 -5.859375 3.609375 -6.046875 C 4.054688 -6.242188 4.550781 -6.34375 5.09375 -6.34375 Z M 4.625 -1.03125 C 5.21875 -1.03125 5.707031 -1.226562 6.09375 -1.625 C 6.488281 -2.03125 6.6875 -2.539062 6.6875 -3.15625 C 6.6875 -3.539062 6.59375 -3.890625 6.40625 -4.203125 C 6.226562 -4.523438 5.984375 -4.78125 5.671875 -4.96875 C 5.359375 -5.15625 5.007812 -5.25 4.625 -5.25 C 4.125 -5.25 3.679688 -5.113281 3.296875 -4.84375 C 2.921875 -4.570312 2.675781 -4.21875 2.5625 -3.78125 L 2.5625 -2.546875 C 2.675781 -2.109375 2.921875 -1.742188 3.296875 -1.453125 C 3.671875 -1.171875 4.113281 -1.03125 4.625 -1.03125 Z M 4.625 -1.03125 "/></g></g></g><g fill="#69ab3d" fill-opacity="1"><g transform="translate(292.72577, 82.853258)"><g><path d="M 4.046875 -1.03125 C 4.554688 -1.03125 5.050781 -1.207031 5.53125 -1.5625 L 6.171875 -0.546875 C 5.847656 -0.328125 5.492188 -0.15625 5.109375 -0.03125 C 4.734375 0.0820312 4.367188 0.140625 4.015625 0.140625 C 3.335938 0.140625 2.742188 0.00390625 2.234375 -0.265625 C 1.734375 -0.546875 1.34375 -0.929688 1.0625 -1.421875 C 0.789062 -1.910156 0.65625 -2.46875 0.65625 -3.09375 C 0.65625 -3.6875 0.804688 -4.226562 1.109375 -4.71875 C 1.410156 -5.21875 1.820312 -5.613281 2.34375 -5.90625 C 2.863281 -6.195312 3.429688 -6.34375 4.046875 -6.34375 C 4.835938 -6.34375 5.5 -6.109375 6.03125 -5.640625 C 6.570312 -5.179688 6.941406 -4.53125 7.140625 -3.6875 L 2.3125 -2 C 2.488281 -1.695312 2.722656 -1.457031 3.015625 -1.28125 C 3.316406 -1.113281 3.660156 -1.03125 4.046875 -1.03125 Z M 3.9375 -5.25 C 3.382812 -5.25 2.925781 -5.050781 2.5625 -4.65625 C 2.195312 -4.269531 2.015625 -3.773438 2.015625 -3.171875 C 2.015625 -3.015625 2.019531 -2.898438 2.03125 -2.828125 L 5.578125 -4.140625 C 5.429688 -4.472656 5.222656 -4.738281 4.953125 -4.9375 C 4.679688 -5.144531 4.34375 -5.25 3.9375 -5.25 Z M 3.9375 -5.25 "/></g></g></g><g fill="#69ab3d" fill-opacity="1"><g transform="translate(300.380196, 82.853258)"><g><path d="M 2.515625 -4.65625 C 2.671875 -4.988281 2.894531 -5.28125 3.1875 -5.53125 C 3.476562 -5.789062 3.785156 -5.988281 4.109375 -6.125 C 4.429688 -6.257812 4.710938 -6.332031 4.953125 -6.34375 L 4.90625 -4.96875 C 4.457031 -4.988281 4.054688 -4.898438 3.703125 -4.703125 C 3.347656 -4.515625 3.066406 -4.242188 2.859375 -3.890625 C 2.660156 -3.546875 2.5625 -3.175781 2.5625 -2.78125 L 2.5625 0 L 1.1875 0 L 1.1875 -6.09375 L 2.40625 -6.09375 Z M 2.515625 -4.65625 "/></g></g></g><g fill="#69ab3d" fill-opacity="1"><g transform="translate(305.91494, 82.853258)"><g><path d="M 2.921875 0.125 C 2.460938 0.125 2.03125 0.046875 1.625 -0.109375 C 1.21875 -0.265625 0.890625 -0.492188 0.640625 -0.796875 L 1.21875 -1.59375 C 1.46875 -1.351562 1.726562 -1.171875 2 -1.046875 C 2.269531 -0.921875 2.535156 -0.859375 2.796875 -0.859375 C 3.117188 -0.859375 3.382812 -0.921875 3.59375 -1.046875 C 3.800781 -1.171875 3.90625 -1.367188 3.90625 -1.640625 C 3.90625 -1.835938 3.835938 -2 3.703125 -2.125 C 3.578125 -2.257812 3.429688 -2.351562 3.265625 -2.40625 C 3.109375 -2.46875 2.835938 -2.554688 2.453125 -2.671875 C 1.410156 -3.003906 0.890625 -3.597656 0.890625 -4.453125 C 0.890625 -4.960938 1.078125 -5.398438 1.453125 -5.765625 C 1.835938 -6.128906 2.367188 -6.3125 3.046875 -6.3125 C 3.472656 -6.3125 3.851562 -6.253906 4.1875 -6.140625 C 4.519531 -6.035156 4.832031 -5.867188 5.125 -5.640625 L 4.578125 -4.796875 C 4.421875 -4.960938 4.222656 -5.09375 3.984375 -5.1875 C 3.742188 -5.289062 3.515625 -5.347656 3.296875 -5.359375 C 3.023438 -5.359375 2.789062 -5.289062 2.59375 -5.15625 C 2.394531 -5.019531 2.296875 -4.84375 2.296875 -4.625 C 2.296875 -4.4375 2.359375 -4.28125 2.484375 -4.15625 C 2.609375 -4.03125 2.738281 -3.941406 2.875 -3.890625 C 3.019531 -3.835938 3.289062 -3.75 3.6875 -3.625 C 4.1875 -3.457031 4.578125 -3.238281 4.859375 -2.96875 C 5.140625 -2.707031 5.28125 -2.351562 5.28125 -1.90625 C 5.28125 -1.3125 5.070312 -0.820312 4.65625 -0.4375 C 4.25 -0.0625 3.671875 0.125 2.921875 0.125 Z M 2.921875 0.125 "/></g></g></g><g fill="#69ab3d" fill-opacity="1"><g transform="translate(311.920718, 82.853258)"><g><path d="M 7.453125 -6.09375 L 7.453125 0 L 6.078125 0 L 6.078125 -1 C 5.859375 -0.71875 5.539062 -0.457031 5.125 -0.21875 C 4.71875 0.0195312 4.253906 0.140625 3.734375 0.140625 C 3.160156 0.140625 2.640625 0.015625 2.171875 -0.234375 C 1.703125 -0.484375 1.332031 -0.847656 1.0625 -1.328125 C 0.789062 -1.804688 0.65625 -2.378906 0.65625 -3.046875 C 0.65625 -3.710938 0.796875 -4.289062 1.078125 -4.78125 C 1.359375 -5.28125 1.734375 -5.664062 2.203125 -5.9375 C 2.679688 -6.207031 3.210938 -6.34375 3.796875 -6.34375 C 4.316406 -6.34375 4.765625 -6.226562 5.140625 -6 C 5.523438 -5.78125 5.835938 -5.488281 6.078125 -5.125 L 6.1875 -6.09375 Z M 4.109375 -0.984375 C 4.609375 -0.984375 5.035156 -1.125 5.390625 -1.40625 C 5.753906 -1.6875 5.984375 -2.066406 6.078125 -2.546875 L 6.078125 -3.75 C 5.960938 -4.1875 5.71875 -4.535156 5.34375 -4.796875 C 4.96875 -5.066406 4.539062 -5.203125 4.0625 -5.203125 C 3.695312 -5.203125 3.359375 -5.113281 3.046875 -4.9375 C 2.742188 -4.769531 2.5 -4.523438 2.3125 -4.203125 C 2.132812 -3.878906 2.046875 -3.519531 2.046875 -3.125 C 2.046875 -2.726562 2.140625 -2.367188 2.328125 -2.046875 C 2.515625 -1.722656 2.765625 -1.460938 3.078125 -1.265625 C 3.390625 -1.078125 3.734375 -0.984375 4.109375 -0.984375 Z M 4.109375 -0.984375 "/></g></g></g><g fill="#69ab3d" fill-opacity="1"><g transform="translate(320.561384, 82.853258)"><g><path d="M 9.015625 -6.34375 C 9.597656 -6.34375 10.0625 -6.175781 10.40625 -5.84375 C 10.757812 -5.507812 10.945312 -5.066406 10.96875 -4.515625 L 10.96875 0 L 9.59375 0 L 9.59375 -4.015625 C 9.5625 -4.734375 9.238281 -5.113281 8.625 -5.15625 C 8.269531 -5.15625 7.953125 -5.046875 7.671875 -4.828125 C 7.390625 -4.617188 7.171875 -4.34375 7.015625 -4 C 6.859375 -3.65625 6.773438 -3.289062 6.765625 -2.90625 L 6.765625 0 L 5.390625 0 L 5.390625 -4.015625 C 5.359375 -4.734375 5.023438 -5.113281 4.390625 -5.15625 C 4.046875 -5.15625 3.734375 -5.046875 3.453125 -4.828125 C 3.171875 -4.617188 2.953125 -4.335938 2.796875 -3.984375 C 2.640625 -3.640625 2.5625 -3.273438 2.5625 -2.890625 L 2.5625 0 L 1.1875 0 L 1.1875 -6.09375 L 2.421875 -6.09375 L 2.53125 -4.953125 C 2.769531 -5.390625 3.09375 -5.726562 3.5 -5.96875 C 3.90625 -6.21875 4.367188 -6.34375 4.890625 -6.34375 C 5.378906 -6.34375 5.789062 -6.226562 6.125 -6 C 6.457031 -5.769531 6.671875 -5.453125 6.765625 -5.046875 C 7.023438 -5.453125 7.347656 -5.769531 7.734375 -6 C 8.128906 -6.226562 8.554688 -6.34375 9.015625 -6.34375 Z M 9.015625 -6.34375 "/></g></g></g><g fill="#69ab3d" fill-opacity="1"><g transform="translate(332.705431, 82.853258)"><g><path d="M 7.453125 -6.09375 L 7.453125 0 L 6.078125 0 L 6.078125 -1 C 5.859375 -0.71875 5.539062 -0.457031 5.125 -0.21875 C 4.71875 0.0195312 4.253906 0.140625 3.734375 0.140625 C 3.160156 0.140625 2.640625 0.015625 2.171875 -0.234375 C 1.703125 -0.484375 1.332031 -0.847656 1.0625 -1.328125 C 0.789062 -1.804688 0.65625 -2.378906 0.65625 -3.046875 C 0.65625 -3.710938 0.796875 -4.289062 1.078125 -4.78125 C 1.359375 -5.28125 1.734375 -5.664062 2.203125 -5.9375 C 2.679688 -6.207031 3.210938 -6.34375 3.796875 -6.34375 C 4.316406 -6.34375 4.765625 -6.226562 5.140625 -6 C 5.523438 -5.78125 5.835938 -5.488281 6.078125 -5.125 L 6.1875 -6.09375 Z M 4.109375 -0.984375 C 4.609375 -0.984375 5.035156 -1.125 5.390625 -1.40625 C 5.753906 -1.6875 5.984375 -2.066406 6.078125 -2.546875 L 6.078125 -3.75 C 5.960938 -4.1875 5.71875 -4.535156 5.34375 -4.796875 C 4.96875 -5.066406 4.539062 -5.203125 4.0625 -5.203125 C 3.695312 -5.203125 3.359375 -5.113281 3.046875 -4.9375 C 2.742188 -4.769531 2.5 -4.523438 2.3125 -4.203125 C 2.132812 -3.878906 2.046875 -3.519531 2.046875 -3.125 C 2.046875 -2.726562 2.140625 -2.367188 2.328125 -2.046875 C 2.515625 -1.722656 2.765625 -1.460938 3.078125 -1.265625 C 3.390625 -1.078125 3.734375 -0.984375 4.109375 -0.984375 Z M 4.109375 -0.984375 "/></g></g></g><path fill="#69ab3d" d="M 82.128906 62.15625 C 82.128906 73.230469 91.1875 82.210938 102.367188 82.210938 C 113.546875 82.210938 122.609375 73.230469 122.609375 62.15625 C 122.609375 51.078125 113.546875 42.097656 102.367188 42.097656 C 91.1875 42.097656 82.128906 51.078125 82.128906 62.15625 Z M 82.128906 62.15625 " fill-opacity="1" fill-rule="nonzero"/><path fill="#69ab3d" d="M 14.292969 62.15625 C 14.292969 73.230469 23.355469 82.210938 34.535156 82.210938 C 45.710938 82.210938 54.773438 73.230469 54.773438 62.15625 C 54.773438 51.078125 45.710938 42.097656 34.535156 42.097656 C 23.355469 42.097656 14.292969 51.078125 14.292969 62.15625 Z M 14.292969 62.15625 " fill-opacity="1" fill-rule="nonzero"/><path fill="#69ab3d" d="M 45.6875 31.703125 C 45.6875 44.15625 55.882812 54.253906 68.449219 54.253906 C 81.019531 54.253906 91.210938 44.15625 91.210938 31.703125 C 91.210938 19.246094 81.019531 9.144531 68.449219 9.144531 C 55.882812 9.144531 45.6875 19.246094 45.6875 31.703125 Z M 45.6875 31.703125 " fill-opacity="1" fill-rule="nonzero"/><path stroke-linecap="round" transform="matrix(0.48051, 0, 0, 0.476139, -2.424342, -11.778565)" fill="none" stroke-linejoin="miter" d="M 147.496622 235.786058 L 147.496622 101.601131 " stroke="#5f4118" stroke-width="12" stroke-opacity="1" stroke-miterlimit="10"/><g clip-path="url(#id1)"><path stroke-linecap="round" transform="matrix(0.48051, 0, 0, 0.476139, -2.424342, -11.778565)" fill="none" stroke-linejoin="miter" d="M 147.496622 212.207709 L 204.418597 155.280024 " stroke="#5f4118" stroke-width="12" stroke-opacity="1" stroke-miterlimit="10"/><path stroke-linecap="round" transform="matrix(0.48051, 0, 0, 0.476139, -2.424342, -11.778565)" fill="none" stroke-linejoin="miter" d="M 147.496622 212.207709 L 90.582776 155.280024 " stroke="#5f4118" stroke-width="12" stroke-opacity="1" stroke-miterlimit="10"/></g></svg>